/* XPM */
static char *result[] = {
/* columns rows colors chars-per-pixel */
"32 32 24 1 ",
"  c #13100D",
". c #1F2E14",
"X c #2A2119",
"o c #352B1E",
"O c #293F1B",
"+ c #403323",
"@ c #4D3E2B",
"# c #334D21",
"$ c #3C6126",
"% c #564229",
"& c #7D533B",
"* c #47782C",
"= c #44912E",
"- c #50AE2B",
"; c #8070B0",
": c #98B8C8",
"> c #A8A8C8",
", c #ADD1DC",
"< c #BCD9E2",
"1 c #D0D0E0",
"2 c #C8E0E8",
"3 c #D6E8ED",
"4 c gray94",
"5 c white",
/* pixels */
"5555555::555555555555555::555555",
"555555:<3:5555555555555:<3:55555",
"55555:<33<:55555555555:<33<:5555",
"55555:3443:55555555555:3443:5555",
"5555:,3443<:555555555::34443:555",
"5555:,<333<:555555555::<343<:555",
"5555:<,<3<<:555555555:<:333<:555",
"555:,<<<<<<::55555555:<<<3<<:555",
"555:<23<<::<:5555555:<<3<<<3::55",
"555:,22<<<<3:5555555::<<<<::<:55",
"555#:,,<32<::5555555::<<<3<<,:55",
"55O*=:,:22:=*:555555:,:<:<<,,:55",
"55O*-=:=::=-::555555O:,:,<,,:O55",
"55O=*--===-:<:555555O:<,,,,<:O55",
"55O=*--==-:3<:55555O==:<:,::==O5",
"55O*=**==:3<<:55555O*==:-:===*O5",
"555#*==*:3<<:555555O:*======*#O5",
"55O$#**#:<<:$O55555::*==**==*#.5",
"55O#*##*$::*#.55555:3:**##**#$.5",
"55O#$**$#**$#.55555:33::$$##*#.5",
"555O#$$##$$#.555555:<3<3:*$$$#.5",
"5555.##..##.55555555:<:<:$**#.55",
"55555..oX..555555555.:$:$#*$#.55",
"555555X+X55555555555.#$$##$$#.55",
"555555X@X155555555555.##..##.555",
"555111X%X>115555555511..+X..1155",
"5511>>X&X;>1155555511>;X%X;>>115",
"511>>;X&+X>>11555511>>X%&@ >1155",
"5511>X+&@X>1155555511> @%+ >>115",
"551>> o@o >>15555511>>;   ;>1155",
"5111>;   ;>11155555111>>>>>11555",
"55511111111155555555511111115555"
};
