/* XPM */
static char *result[] = {
/* columns rows colors chars-per-pixel */
"32 32 124 2 ",
"   c #283B44",
".  c #363F46",
"X  c #35464F",
"o  c #3A434A",
"O  c #374A52",
"+  c #4F4F46",
"@  c #4D504C",
"#  c #555449",
"$  c #5A594E",
"%  c #444D55",
"&  c #4A535A",
"*  c #4B585F",
"=  c #555750",
"-  c #5F5854",
";  c #4C5A62",
":  c #525C64",
">  c #576166",
",  c #5F6362",
"<  c #546269",
"1  c #5D666D",
"2  c #5E686F",
"3  c #5E6B72",
"4  c #61686E",
"5  c #6E6F6C",
"6  c #636D74",
"7  c #65747A",
"8  c #6C747B",
"9  c #6E7A7E",
"0  c #73777D",
"q  c #913717",
"w  c #B64414",
"e  c #BD5D1F",
"r  c #80462E",
"t  c #8A5435",
"y  c #CF510A",
"u  c #DA500E",
"i  c #D75A0E",
"p  c #DD5E0F",
"a  c #D15F15",
"s  c #8E7D70",
"d  c #A47E62",
"f  c #928477",
"g  c #6D7B81",
"h  c #737E84",
"j  c #797E83",
"k  c #728086",
"l  c #7B8286",
"z  c #7C858A",
"x  c #7C898E",
"c  c #7E8B91",
"v  c #82868A",
"b  c #868A8D",
"n  c #898B8C",
"m  c #828E93",
"M  c #8B8D92",
"N  c #839196",
"B  c #8D9195",
"V  c #879399",
"C  c #8E9A9F",
"Z  c #919397",
"A  c #989692",
"S  c #93969B",
"D  c #95989D",
"F  c #989B9F",
"G  c #BE9E87",
"H  c #A0A49E",
"J  c #929DA3",
"K  c #9A9EA2",
"L  c #97A2A6",
"P  c #9AA2A7",
"I  c #96A3A8",
"U  c #9DA6AB",
"Y  c #9DA8AC",
"T  c #9FACB0",
"R  c #A2A6AB",
"E  c #A4AAAE",
"W  c #A9ABAF",
"Q  c #A4ACB1",
"!  c #A9AEB2",
"~  c #A4B1B6",
"^  c #ADB2B6",
"/  c #ABB6B9",
"(  c #ACB8BB",
")  c #B7B7B5",
"_  c #B5BBB7",
"`  c #B2B5B9",
"'  c #B4BBBD",
"]  c #B4BCC1",
"[  c #BABEC2",
"{  c #B5C1C4",
"}  c #BAC2C5",
"|  c #BDC7CA",
" . c #BDCACD",
".. c #C3C5C5",
"X. c #C4C7CA",
"o. c #C5CACD",
"O. c #C3CFD2",
"+. c #CBCED1",
"@. c #C5D2D4",
"#. c #CAD2D4",
"$. c #CDD7DA",
"%. c #CFDADD",
"&. c #D1D3D6",
"*. c #D2D7D9",
"=. c #D4DADC",
"-. c #D9DCDE",
";. c #D2DEE1",
":. c #DDDFE1",
">. c #D6E1E3",
",. c #DBE4E6",
"<. c #DCE6E9",
"1. c #DEE9EC",
"2. c #E3E5E6",
"3. c #E6E7E8",
"4. c #E2EBED",
"5. c #EAECED",
"6. c #E3EEF0",
"7. c #EBEFF0",
"8. c #E6F0F2",
"9. c #ECF2F3",
"0. c #F3F4F5",
"q. c #F1F7F8",
"w. c #F6F9FA",
"e. c #FEFEFE",
/* pixels */
"e.e.e.e.e.e.e.e.e.e.e.e.e.e.e.e.e.e.e.e.e.e.e.e.e.e.e.e.e.e.e.e.",
"e.e.e.e.e.e.e.e.e.5.^ R ! ^ ` ` ^ E ! ! &.e.e.e.e.e.e.e.e.e.e.e.",
"e.e.e.e.e.e.e.e.[ ! #.3.w.e.e.e.e.w.7.=.' ! 5.e.e.e.e.e.e.e.e.e.",
"e.e.e.e.e.e.0.` [ 5.w.e.e.e.e.e.e.e.e.e.7.o.! 7.e.e.e.e.e.e.e.e.",
"e.e.e.e.e.e.X.] 0.e.e.e.e.e.e.e.e.e.e.e.e.0.o.Q e.e.e.e.e.e.e.e.",
"e.e.e.e.e.5.E 5.e.w.e.e.e.e.e.e.e.e.e.e.e.e.5.` -.e.e.e.e.e.e.e.",
"e.e.e.e.e.+.X.e.e.e.e.e.e.e.e.e.e.e.e.e.e.e.w.*.R e.e.e.e.e.e.e.",
"e.e.e.e.0.R 2.e.e.e.e.e.e.e.e.e.e.e.e.e.e.e.e.5.R e.e.e.e.e.e.e.",
"e.e.e.e.0.E 0.e.w.e.e.e.e.e.e.e.e.e.e.e.e.e.e.0.E 0.7.3.9.e.e.e.",
"e.e.e.e.e.I 9.e.e.e.e.e.e.e.e.w.3.o.} e.e.0.>.[ l A f d G 5.e.e.",
"e.e.e.e.e.U <.w.e.e.e.e.e.e.e.q.g   O 5.e.*.s e a p i y d 3.e.e.",
"e.e.e.e.e.V ;.8.w.w.e.e.e.e.e.e.g O o 2.w.} - t u w q r ) 0.e.e.",
"e.e.e.e.w.h @.3.w.e.e.e.e.e.e.w.<.c U w.e.-.m > , b ' =.w.e.e.e.",
"e.e.e.e.3.3 @.1.>.0.e.e.e.e.e.e.e.e.e.e.e.w.,.{ 9 X.e.e.e.e.e.e.",
"e.e.e.e.5.; } 1.1.1.4.9.w.w.e.e.e.} < w.w.9.4.] E e.e.e.e.e.e.e.",
"e.e.e.e.3.0 x %.4.4.4.6.6.8.9.8.9.{ c o.;  .O.k ' e.e.e.e.e.e.e.",
"e.e.e.e.e.*.; ~ 1.1.1.4.6.6.6.4.6.1.6.%.3 @.~ < 9.e.e.e.e.e.e.e.",
"e.e.e.e.e.e.5 # _ 4.1.1.4.4.6.6.6.6.6.8.8.o.J ^ 9.e.e.e.e.e.e.e.",
"e.e.e.e.e.2.@ + 3 E ,.1.1.6.6.6.6.1.1.%.( m ' *.K 3.e.e.e.e.e.e.",
"e.e.e.e.e.Z V L 7 * $ H %.%.O.@.%.$.C N L o.0.0.#.8 R ..e.e.e.e.",
"e.e.e.e.-.x =.@. . .9 , = n c m U O.=.5.w.w.e.w.7.R v D X.e.e.e.",
"e.e.e.e.L x 1.,.%.;.>.%.#...3.2.7.e.e.w.e.w.0.e.e.&.8 D D 2.e.e.",
"e.e.e.0.z Y 4.6.6.8.6.;.5.w.w.w.w.e.w.w.w.w.w.e.e.2.z M D R e.e.",
"e.e.e.-.; _ ,.4.6.8.1.8.w.9.I x m N ( 5.e.w.e.w.e.4.z v D D 5.e.",
"e.e.e.` % Q 1.6.6.6.1.8.w.J 9.e.e.1.x } 0.w.w.q.7.,.m n S S ..e.",
"e.e.5.v . R 4.6.6.6.1.8.w.T e.e.e.q.T c 7.w.9.<.$.I : Z D S K e.",
"e.e.W B o v $.8.1.6.6.9.7.I w.e.e.6.N k 0.3.;.] m 6 & B D S W e.",
"e.e.F Z * 6 | >.6.6.8.8.w.L >.6.6.( 6 E 1.>.Q h 3 & 3 B S S 2.e.",
"e.e.W D n : z o.%.1.6.8.8.6.Y g 7 < c >.>.] 7 < : : v Z F 2.e.e.",
"e.e.0.W F M 1 7 Q  .%.>.1.6.1.@. .1.;.@.^ 6 : g : v Z D X.e.e.e.",
"e.e.e.7.D D D 0 1 2 g z C J Y / ~ D z 6 : & 1 8 Z D D ` e.e.e.e.",
"e.e.e.e.w.o.F F B M 0 6 > % % ; 1 6 9 8 j M M Z D D X.e.e.e.e.e."
};
