/* XPM */
static char *result[] = {
/* columns rows colors chars-per-pixel */
"32 32 119 2 ",
"   c #424D54",
".  c #4B5256",
"X  c #455358",
"o  c #4A555C",
"O  c #5B5B55",
"+  c #505458",
"@  c #565B58",
"#  c #605C50",
"$  c #4B5A61",
"%  c #535E65",
"&  c #566269",
"*  c #5B666C",
"=  c #5F696E",
"-  c #5E6C73",
";  c #5F7076",
":  c #6B6D66",
">  c #666B6A",
",  c #646E75",
"<  c #6C7175",
"1  c #6C787E",
"2  c #7A7C73",
"3  c #777B7D",
"4  c #797D7F",
"5  c #83837D",
"6  c #6F7B80",
"7  c #757F83",
"8  c #797D80",
"9  c #748186",
"0  c #7D8185",
"q  c #77838A",
"w  c #7C868B",
"e  c #7C8A8F",
"r  c #7B8B90",
"t  c #808487",
"y  c #8F8D86",
"u  c #83878B",
"i  c #878A8D",
"p  c #93928B",
"a  c #868D92",
"s  c #8A8D91",
"d  c #849296",
"f  c #8E9194",
"g  c #859399",
"h  c #8C969B",
"j  c #909396",
"k  c #999790",
"l  c #9A9B93",
"z  c #93969A",
"x  c #969A9D",
"c  c #989B9F",
"v  c #949DA1",
"b  c #95A2A5",
"n  c #9CA1A5",
"m  c #9AA4A9",
"M  c #9FADAF",
"N  c #9FAEB2",
"B  c #A7A6A1",
"V  c #AFAFA7",
"C  c #A2A7AC",
"Z  c #A4A9AD",
"A  c #B3B4AD",
"S  c #A5ACB1",
"D  c #A8AEB2",
"F  c #A6B3B6",
"G  c #AAB2B5",
"H  c #A9B6B9",
"J  c #AEBBBD",
"K  c #B1B3B6",
"L  c #BCBCB4",
"P  c #B3B6B8",
"I  c #B0B9BB",
"U  c #C5C3BC",
"Y  c #AEBEC0",
"T  c #B3BFC2",
"R  c #BBBEC2",
"E  c #B5C4C4",
"W  c #BDC2C5",
"Q  c #B6C8C5",
"!  c #B8C8C7",
"~  c #BAC7C8",
"^  c #BBC9CA",
"/  c #C3C5C5",
"(  c #CDCCC5",
")  c #C4C7C9",
"_  c #C4CACD",
"`  c #CACFCE",
"'  c #D0CFC7",
"]  c #CFD0CC",
"[  c #D5D4CC",
"{  c #C1CCD0",
"}  c #CDCFD1",
"|  c #C5D2D3",
" . c #CBD3D5",
".. c #CAD6D8",
"X. c #CDDADC",
"o. c #D2D3D5",
"O. c #D5D7D9",
"+. c #D1DCDE",
"@. c #DDDDDD",
"#. c #E2E2DD",
"$. c #D3DEE1",
"%. c #D6E2E4",
"&. c #DBE3E5",
"*. c #DBE6E8",
"=. c #DEEAEC",
"-. c #E3E5E5",
";. c #E1E6E8",
":. c #E3EBEC",
">. c #EAECED",
",. c #F0F0EF",
"<. c #E5EFF0",
"1. c #ECEFF0",
"2. c #E6F0F2",
"3. c #ECF2F3",
"4. c #F3F5F5",
"5. c #FAF8F1",
"6. c #F4F7F8",
"7. c #F6F9F9",
"8. c #FEFEFE",
/* pixels */
"8.8.8.8.8.8.8.8.8.8.>. .} } >.K S D ) >.7.8.8.8.8.8.8.8.8.8.8.8.",
"8.8.8.8.8.8.8.8.o.C _ >.7.8.6.>.4.4.-.) Z R 8.8.8.8.8.8.8.8.8.8.",
"8.8.8.8.8.8.8.S R 1.8.8.8.8.8.8.8.8.8.8.4.W Z 8.8.8.8.8.8.8.8.8.",
"8.8.8.8.8.8./ W 4.8.8.8.8.8.8.8.8.8.8.8.8.6.R _ 8.8.8.8.8.8.8.8.",
"8.8.7.-.8.7.Z >.8.8.8.8.8.8.8.8.8.8.8.8.8.8.>.C 8.8.8.8.8.8.8.8.",
"8.5.l : 2 4 } 8.8.8.8.8.8.8.8.8.8.8.8.8.8.7.8.O.z 8.8.8.8.8.8.8.",
"8.B U #.[ h :.8.8.8.8.8.8.8.8.8.8.8.8.8.8.8.8.3.S 8.8.8.8.8.8.8.",
"@.L [ ' 5.C 4.8.7.8.8.8.8.8.8.8.8.8.8.8.7.7.7.4.m 8.8.8.8.8.8.8.",
"[ ( [ A ( S 7.8.8.8.8.8.7.8.8.8.8.8.7.4.3.4.4.<.b 8.8.8.8.8.8.8.",
"/ A ' p k m 4.8.8.7.8.7.8.8.7.8.8.8.8.4.7.4.4.:.h 8.8.8.8.8.8.8.",
"#.l ( y 5 f :.8.8.7.8.7.8.8.7.7.8.8.8.7.7.7.<.X.7 8.8.8.8.8.8.8.",
">.5 ( k p u | 8.8.8.8.8.8.8.8.8.7.4.4.8.8.3.2.E , &.8.8.8.8.8.8.",
"8.A V k 2 u E :.7.6.8.8.7.8.7.7.7.6.6.4.:.=.=.H & 4.8.8.8.8.8.8.",
"8.@.2 5 O x m $.:.1.4.7.,.4.6.6.4.1.<.=.*.<.X.h $ 8.8.8.8.8.8.8.",
"8.8.7.o.4.A w X.%.*.:.<.3.3.4.3.<.*.%.%.=.=.J r $ 8.8.8.8.8.8.8.",
"8.8.8.8.8.f - X.%.%.%.%.%.%.%.%.%.%.%.*.:.$.h - , 8.8.8.8.8.8.8.",
"8.8.8.8.8.@ w d %.%.=.%.%.%.%.%.%.%.*.=.X.b 9 $ > 8.8.8.8.8.8.8.",
"8.8.8.8.( # B  .N Y +.*.*.*.*.*.*.%.$.{ F h - 9 o  .8.8.8.8.8.8.",
"8.8.8.8.* y >.6.6.~ S J | ..| _ ..H m h d b .._ , C 8.8.8.8.8.8.",
"8.8.8.8.w / >.8.8.7.4.%.^ Y F F J E ^ X.%.=.2.] 1 * 4.8.8.8.8.8.",
"8.8.8.7.m -.4.8.8.8.8.8.8.7.6.4.1.1.3.4.6.2.:. .v 7 7 r m 4.8.8.",
"8.8.8.-.G <.8.8.8.8.8.8.8.8.8.8.8.8.8.8.6.<.=.%.I S < 4.3.b 8.8.",
"8.8.8.8.S :.7.7.8.8.8.8.8.8.8.8.8.8.8.8.3.:.=.*.+.G . x ) M 7.8.",
"8.8.8.6.v *.4.4.8.8.8.8.8.8.8.8.8.8.8.>.=.:.%.*.| m 4 z h 7 1.8.",
"8.8.8./ 8 ^ :.1.7.8.8.7.7.7.4.6.6.>.>.:.=.%.$.%._ 9 7 a w > / 8.",
"8.8.@.z s q $.%.;.-.&.&.-.-.;.-.>.&.%.+.%.%.%.%.b     o , j v 8.",
"8.8. .z j 8 q { ..+.+.X.X.....| ........$.$.+.v o 0 0 u z z z 8.",
"8.8.>.z z j 8 & b E ! ! ^ ! ! Q E T E ! | E 9 X u f z z z z Z 8.",
"8.8.8.) z z z t . + d M H Y Y J H J Y H 0 % < i j z z z z v >.8.",
"8.8.8.8._ z z z i 3 X X o o o o & * & X + + j z z z z z v >.8.8.",
"8.8.8.8.8.>.K z z z j f f f f f f f f f j j z x z z c ) 7.8.8.8.",
"8.8.8.8.8.8.8.7.O.P x z f a s f j z z z x z z v R -.8.8.8.8.8.8."
};
