/* XPM */
static char *result[] = {
/* columns rows colors chars-per-pixel */
"32 32 11 1 ",
"  c #443622",
". c #64482D",
"X c #6B4D30",
"o c #B67E4C",
"O c #C58F47",
"+ c #CC9C5E",
"@ c #A0C0D0",
"# c #D8D8E0",
"$ c #E8E8F0",
"% c #F1F1F1",
"& c white",
/* pixels */
"&&&&&&&&&&&&&&&&&&&&&&&&&&&&&&&&",
"&&&&&&&&&&&&&&&&&&&&&&&&&&&&&&&&",
"&&&&&&&&&&&&&&&&&&&&&&&&&&&&&&&&",
"&&&&&&&&&&&&&&&&&&&&&&&&&&&&&&&&",
"&&&&&&&&&&&&&&&&&&&&&&&&&&&&&&&&",
"&&&&&&&&&&&&&&&&&&&&&&&&&&&&&&&&",
"&&&&&&&&&&&&##@&&##@&&&&&&&&&&&&",
"&&&&&&&&&&&#%%$@#%%$@&&&&&&&&&&&",
"&&&&&&&&&&#%%$$#%%$$@&&&&&&&&&&&",
"&&&&&&&&&#%%$@#%%$@@ &&&&&&&&&&&",
"&&&&&&&&#%%$@#%%$@XX#@&&##@&&&&&",
"&&&&&&&#@@$@#@@$@XX#%$@#%%$@&&&&",
"&&&&&& oOo@ oOo@XX#%$$#%%$$@&&&&",
"&&&&&&.O+O..O+O.X#%$@#%%$@@ &&&&",
"&&&&&#.oOo#.oOo##%$@#%%$@XX##@&&",
"&&&&#@@. .@@. .@@$@#@@$@XX#%%$@&",
"&&& oOo@ oOo@ oOo@ oOo@XX#%%$$@&",
"&&&.O+O..O+O..O+O..O+O.X#%%$@@ &",
"&&&.oOo#.oOo#.oOo#.oOo##%%$@XX#&",
"&&#@. .@@. .@@. .@@. .@@@$@XX#&&",
"& oOo@ oOo@ oOo@ oOo@ oOo@XX#&&&",
"&.O+O..O+O..O+O..O+O..O+O.X#&&&&",
"&.oOo#.oOo#.oOo#.oOo#.oOo##&&&&&",
"&&. .@&. .@&. .@&. .@&. .@&&&&&&",
"&&&&&&&&&&&&&&&&&&&&&&&&&&&&&&&&",
"&&&&&&&&&&&&&&&&&&&&&&&&&&&&&&&&",
"&&&&&&&&&&&&&&&&&&&&&&&&&&&&&&&&",
"&&&&&&&&&&&&&&&&&&&&&&&&&&&&&&&&",
"&&&&&&&&&&&&&&&&&&&&&&&&&&&&&&&&",
"&&&&&&&&&&&&&&&&&&&&&&&&&&&&&&&&",
"&&&&&&&&&&&&&&&&&&&&&&&&&&&&&&&&",
"&&&&&&&&&&&&&&&&&&&&&&&&&&&&&&&&"
};
