/* XPM */
static char *result[] = {
/* columns rows colors chars-per-pixel */
"32 32 159 2 ",
"   c #24251C",
".  c #575018",
"X  c #46443A",
"o  c #746F28",
"O  c #4D534D",
"+  c #565247",
"@  c #565E4B",
"#  c #49565F",
"$  c #565950",
"%  c #5D5E54",
"&  c #615E56",
"*  c #5F615F",
"=  c #6E6451",
"-  c #75715E",
";  c #4D5B62",
":  c #545E65",
">  c #556066",
",  c #546169",
"<  c #5C656B",
"1  c #5C6A6F",
"2  c #5E6C73",
"3  c #616765",
"4  c #676865",
"5  c #6B6C64",
"6  c #75746D",
"7  c #646E74",
"8  c #657379",
"9  c #6C747B",
"0  c #6E797F",
"q  c #767973",
"w  c #7B7B73",
"e  c #737A7C",
"r  c #797E78",
"t  c #757672",
"y  c #913717",
"u  c #B64414",
"i  c #80462E",
"p  c #8B6E24",
"a  c #BB6429",
"s  c #CF510A",
"d  c #D75A0E",
"f  c #DD5E0F",
"g  c #C7551C",
"h  c #9A7446",
"j  c #A47E62",
"k  c #7D8079",
"l  c #81837C",
"z  c #898273",
"x  c #928477",
"c  c #9D8E7D",
"v  c #6C7B81",
"b  c #747D83",
"n  c #7A7E84",
"m  c #758286",
"M  c #7B8285",
"N  c #748388",
"B  c #7C848A",
"V  c #7D898F",
"C  c #7F8C91",
"Z  c #818683",
"A  c #82858A",
"S  c #82898D",
"D  c #898B8F",
"F  c #908F88",
"G  c #8B918D",
"H  c #91928D",
"J  c #848D93",
"K  c #8A8D91",
"L  c #839196",
"P  c #8E9295",
"I  c #87959A",
"U  c #8F999F",
"Y  c #929594",
"T  c #989692",
"R  c #9B9D95",
"E  c #93969A",
"W  c #95999D",
"Q  c #989B9F",
"!  c #AB9F8E",
"~  c #9DA19B",
"^  c #A4A49C",
"/  c #A9A699",
"(  c #8D9AA1",
")  c #939DA2",
"_  c #9B9EA2",
"`  c #96A2A5",
"'  c #9CA0A6",
"]  c #97A4A8",
"[  c #9CA4A9",
"{  c #9DA9AD",
"}  c #9EACB1",
"|  c #A7A6A0",
" . c #A8A6A0",
".. c #A1A8A7",
"X. c #ACABA4",
"o. c #A2A6AA",
"O. c #A2A9AE",
"+. c #AAADAD",
"@. c #AFB0A5",
"#. c #B6B5AB",
"$. c #A3ACB1",
"%. c #A9ADB1",
"&. c #ABB2B5",
"*. c #A7B4B8",
"=. c #A9B5B9",
"-. c #ADB9BC",
";. c #B4B7B3",
":. c #B2B5B9",
">. c #B4BBBD",
",. c #BCBCB3",
"<. c #C0A28C",
"1. c #C3C3BC",
"2. c #B5BDC1",
"3. c #BABEC2",
"4. c #B5C0C4",
"5. c #BDC2C4",
"6. c #BCC6C9",
"7. c #BECACD",
"8. c #C2C4C5",
"9. c #C6C8C7",
"0. c #C4C7CA",
"q. c #C6CACD",
"w. c #CCCECC",
"e. c #CDCBC3",
"r. c #D2CFC9",
"t. c #D3D3CC",
"y. c #CCCFD2",
"u. c #C6D2D5",
"i. c #CCD3D5",
"p. c #CBD7D9",
"a. c #CFD9DC",
"s. c #D2D4D5",
"d. c #D1D8D7",
"f. c #DCDBD4",
"g. c #D3D7D9",
"h. c #D3DCDD",
"j. c #DBDCDC",
"k. c #E2E1D9",
"l. c #D3DEE1",
"z. c #DBDDE0",
"x. c #D6E1E3",
"c. c #DAE3E5",
"v. c #DCE6E9",
"b. c #DEE9EC",
"n. c #E3E5E6",
"m. c #E2EBED",
"M. c #EBECED",
"N. c #EBE9E2",
"B. c #F7F7EF",
"V. c #E3EDF0",
"C. c #ECEFF0",
"Z. c #E6F1F3",
"A. c #ECF2F4",
"S. c #E9F7F8",
"D. c #F3F4F4",
"F. c #FDFCF2",
"G. c #F1F6F8",
"H. c #F6F9FA",
"J. c #FEFFFF",
/* pixels */
"J.J.J.J.J.J.J.J.J.J.J.J.J.J.J.J.J.J.J.J.J.J.J.J.J.J.J.J.J.J.J.J.",
"J.J.J.J.J.J.J.J.J.J.J.s.8.q.i.z.z.j.g.y.8.3.M.J.J.J.J.J.J.J.J.J.",
"J.J.J.J.J.J.J.J.J.M.%.>.g.M.H.J.J.J.J.H.M.w.%.3.J.J.J.J.J.J.J.J.",
"J.J.J.J.J.J.J.J.C.%.q.D.J.J.J.J.J.J.J.J.J.H.M.2.:.H.J.J.J.J.J.J.",
"J.J.J.J.J.J.J.J.$.q.H.J.J.J.J.J.J.J.J.J.J.J.J.D.>.0.J.J.J.J.J.J.",
"J.J.J.J.J.J.J.j.:.M.f.>.f.J.J.J.J.J.J.J.J.J.J.J.M.o.M.J.J.J.J.J.",
"J.J.J.J.J.J.J.o.g.8.T k w l M.J.J.J.J.J.J.J.J.H.J.8.y.J.J.J.J.J.",
"J.J.J.J.J.J.J.o.9.X.k.F.N.^ k D.J.J.J.J.J.J.J.J.J.n.O.H.J.J.J.J.",
"J.J.J.J.n.A.H.[ X.k.t.t.F.F.#.H J.J.J.J.J.J.J.H.J.D.o.H.J.J.J.J.",
"J.J.B.! j x T q R k.,.X.f.J.t.^ H.J.J.J.J.J.J.J.J.C.] J.J.J.J.J.",
"J.J.M.j s d f a c e.^ w X.B.F.l p.J.J.J.J.J.J.J.H.c.] J.J.J.J.J.",
"J.J.D.,.i y u g z 1. .6 w f.J.~ s.J.J.J.H.J.J.J.G.h.( J.J.J.J.J.",
"J.J.J.D.s.:.S * r 1.^ F w | J.1.w.J.J.J.J.J.H.V.m.6.S J.J.J.J.J.",
"J.J.J.J.J.J.0.v G T 5 ;.9.% 5 l w.J.J.J.H.Z.V.b.m.=.V J.J.J.J.J.",
"J.J.J.J.J.J.J.%...R t X.@.O W j.C.H.G.Z.V.b.b.V.l.I J J.J.J.J.J.",
"J.J.J.J.J.J.J.s.v 7.7.; X.k &.A.Z.Z.m.Z.b.b.V.b.2.9 0.J.J.J.J.J.",
"J.J.J.J.J.J.J.D., { u.2 5 @ u.V.m.V.V.S.b.b.V.p.v J D.J.J.J.J.J.",
"J.J.J.J.J.J.J.D.*.` 6.Z.h . h.Z.V.b.Z.b.v.x.-.8 ; _ H.J.J.J.J.J.",
"J.J.J.J.J.J.M._ g.>.C -.! o >.b.b.V.Z.l.^ - , 8 8 # s.D.J.J.J.J.",
"J.J.J.J.J.J.+.s.D.G.w.` M p @ ] 4.-.5 + < v *.{ ` 0 7 O.9.J.J.J.",
"J.J.J.J.J.c.:.M.H.G.H.M.P N V N I 4.1.q.a.a.h.x.l.2.7 Y W 0.J.J.",
"J.J.J.J.J.[ s.H.J.G.H.W A.J.J.b.V 5.H.n.x.x.c.c.v.v.B M E E n.J.",
"J.J.J.J.D.W v.J.J.J.G.{ J.J.J.S.} V C.v.x.x.c.v.b.v.[ 7 Y E o.J.",
"J.J.J.J.j.S m.H.J.H.C.] H.J.J.Z.L N m.m.x.v.v.v.v.v.2.; A E E M.",
"J.J.J.J.3.C c.V.G.H.J._ x.m.m.*.2 $.H.C.x.v.b.b.b.v.&.7 D E W 8.",
"J.J.J.n.K < ] p.c.Z.H.H.{ v 1 : M H.J.H.V.b.b.b.m.v.O.< Y E W _ ",
"J.J.J.o.E < 7 J 2.x.m.J.J.w.w + l H.J.J.S.b.b.b.m.h.J : P E E O.",
"J.J.J.Q E P < 7 b } x.v.H.#.& & X ^ H.H.Z.V.V.b.x.6.9 3 P E W n.",
"J.J.J.+.E W Y : , 9 4.x.;.X +.H.6 - ;.Z.Z.V.b.l.0.J : A E _ n.J.",
"J.J.J.H.%.W W E < : 7 *.Y   5 $./ = ..v.l.l.7.$.v : A E E 0.J.J.",
"J.J.J.J.C.W W W E A < > S f.t.w._ q ( W J n 7 < 9 K E E :.J.J.J.",
"J.J.J.J.J.H.0._ W W Y A 9 M 9 < < 7 b M b n K K E W E 8.J.J.J.J."
};
