/* XPM */
static char *result[] = {
/* columns rows colors chars-per-pixel */
"32 32 86 1 ",
"  c #020E0F",
". c #020F11",
"X c #061213",
"o c #0B1617",
"O c #091619",
"+ c #0A1A1B",
"@ c #132123",
"# c #253436",
"$ c #2C393C",
"% c #313E40",
"& c #384348",
"* c #3B4A4C",
"= c #404D4F",
"- c #404B50",
"; c #465355",
": c #4F5C5F",
"> c #556264",
", c #626D6E",
"< c #626F71",
"1 c #637174",
"2 c #6E787E",
"3 c #727A7E",
"4 c #777D81",
"5 c #758385",
"6 c #798185",
"7 c #80888C",
"8 c #99A4A7",
"9 c #A9B4B7",
"0 c #ABB3B9",
"q c #A5B9B9",
"w c #ABBCBE",
"e c #B1BBBE",
"r c #A6BCC3",
"t c #ADBDC4",
"y c #AEBFC9",
"u c #B2BDC3",
"i c #B0BFC8",
"p c #ADC1C5",
"a c #AEC3C9",
"s c #B3C2C5",
"d c #B3C4CA",
"f c #B8C5CB",
"g c #B5C9CE",
"h c #BACACD",
"j c #AECAD1",
"k c #B3CBD0",
"l c #BDCED4",
"z c #B7D2D7",
"x c #BFD1D4",
"c c #B5D4DA",
"v c #BBD3D8",
"b c #C0CDCF",
"n c #C2CCD1",
"m c #C5D3D5",
"M c #CAD5D5",
"N c #C6D5DA",
"B c #CAD6DA",
"V c #C5D9DC",
"C c #CCDADD",
"Z c #D0D7DB",
"A c #D3DCDD",
"S c #C2DCE1",
"D c #CEDCE1",
"F c #D1DEE3",
"G c #CEE1E2",
"H c #D3E1E3",
"J c #D9E3E6",
"K c #D8E8E7",
"L c #D7E4E9",
"P c #DBE6E9",
"I c #D3EAED",
"U c #DCEAEB",
"Y c #D5EEF1",
"T c #D9EFF3",
"R c #D5F0F3",
"E c #DDF2F3",
"W c #DAF5F8",
"Q c #E2EDEE",
"! c #E8EFEB",
"~ c #E6F1EE",
"^ c #E9F1EE",
"/ c #E5EFF0",
"( c #E6F1F1",
") c #E8F2F2",
"_ c #E0F6F8",
"` c white",
/* pixels */
"```````````GjzvzzccjG```````````",
"`````````NrVYETTRRRISgm`````````",
"```````MpgGWWW_WWWWRIRgrd```````",
"``````mpVUWEE(~EEEEEEEIVaB``````",
"`````VqM~)))Q((~Q~~(E__KNtB`````",
"````Mpm~))))(/~^~Q^Q~~~)TntB````",
"```Mwm(~^^^^!^^^!!!~Q~!QPClyC```",
"```qhE)~^^))!^^^!!!!!!!~/Flyr```",
"``MsM())^~~^^^^^^^!^^^~~/UBdrC``",
"``uhF/)^^~~~^^^^^!)^^~~~QQCzaa``",
"`MeCQ/())~~~~~~~^^^~~~()QUGlyyB`",
"`exAUQ~(~~~~~~~~^(~~~^~(QPHxffy`",
"`eBHU/()))(((())))))))((~KGzady`",
"`sBLT//))))())))()))))(QUKChaty`",
"nfALP//)))~~)))~)()))/~EKHVhsfsN",
"0nALQ///)()(~))))))^((~~KGNfyyit",
"uBJCAQQ^/////)))()()(/UUKVxsspdp",
"eCCAMQFAQQ///))/~(Q~//UUGVkssssp",
"uMAB, ,ZFQ///)//Q~~Q/PKKGmgsssfp",
"0nZ1 Xo,ZA//)/!!QQQUUPPHGxddfsst",
"ummXXXXXMQQFQQPPUUPPPJHGClgdassy",
"eBmXXXXX8FFFFJJJJPPJJFDDVvgapdd`",
"sm,+oXXX;FF!QJPPJJJJJFDDVlgapdf`",
"`CX XXXX.ZFAFFFLFJFHFFCBNxgdas``",
"`mXXXXXXOJFCFFFFHHHHFDDDSngddf``",
"`AX+#@+@$PCFFFFFHAHFFDDNSlfdd```",
"```,>*$$-PFFFFJFHGHGDDCCBnff````",
"````51:*%FFFFFFFGHFFFDCVBnf`````",
"`````64>-DZBFFFFHFHHHCCNnn``````",
"``````46%DDDDFFFHGFGDCmlh```````",
"````````2BDFDDDFHFHDNNN`````````",
"```````````FDDDFGGDD````````````"
};
