/* XPM */
static char *result[] = {
/* columns rows colors chars-per-pixel */
"32 32 171 2 ",
"   c #28251E",
".  c #393830",
"X  c #514E1C",
"o  c #4E4A3F",
"O  c #756B26",
"+  c #37444D",
"@  c #384650",
"#  c #3D4F57",
"$  c #3F5159",
"%  c #484941",
"&  c #544F42",
"*  c #4B5148",
"=  c #575347",
"-  c #5F5847",
";  c #505248",
":  c #585549",
">  c #5A5A4D",
",  c #414C54",
"<  c #4B5454",
"1  c #45535B",
"2  c #4A555C",
"3  c #4D585D",
"4  c #535351",
"5  c #5B5B54",
"6  c #676558",
"7  c #4B5C63",
"8  c #525E64",
"9  c #5F6461",
"0  c #55656B",
"q  c #5D6E6E",
"w  c #5D6C72",
"e  c #696C63",
"r  c #60666C",
"t  c #666F6E",
"y  c #686A69",
"u  c #656462",
"i  c #726D60",
"p  c #717164",
"a  c #73756E",
"s  c #797A6B",
"d  c #646E71",
"f  c #637176",
"g  c #6C7275",
"h  c #65747A",
"j  c #6C7A7E",
"k  c #757B76",
"l  c #7B7C73",
"z  c #757C7A",
"x  c #7B7E7E",
"c  c #9C2F12",
"v  c #AD4019",
"b  c #8D442A",
"n  c #87602F",
"m  c #BA6327",
"M  c #DE5E0F",
"N  c #C25013",
"B  c #D65E14",
"V  c #CE611A",
"C  c #937863",
"Z  c #807F79",
"A  c #83837C",
"S  c #908372",
"D  c #717F83",
"F  c #7A7E82",
"G  c #758285",
"H  c #7E8185",
"J  c #76858B",
"K  c #7B878C",
"L  c #7B898F",
"P  c #7F958E",
"I  c #7D8C91",
"U  c #828584",
"Y  c #878982",
"T  c #8F8E87",
"R  c #828689",
"E  c #838B8E",
"W  c #8B8C8C",
"Q  c #80968F",
"!  c #94938C",
"~  c #96998E",
"^  c #868D92",
"/  c #839295",
"(  c #8E9194",
")  c #849893",
"_  c #8A969B",
"`  c #8C9B9A",
"'  c #839499",
"]  c #919497",
"[  c #999790",
"{  c #9B9C93",
"}  c #93969B",
"|  c #969A9E",
" . c #9A9B9C",
".. c #8BA099",
"X. c #A3A39A",
"o. c #919CA1",
"O. c #96A2A5",
"+. c #9BA1A6",
"@. c #96A8A2",
"#. c #9CA4A9",
"$. c #9EABAC",
"%. c #96A4A9",
"&. c #9FADB1",
"*. c #A7A6A2",
"=. c #A1A6AB",
"-. c #A4A9AE",
";. c #ACADA7",
":. c #B3B3AC",
">. c #B9B8A8",
",. c #A4ACB1",
"<. c #AAAEB4",
"1. c #A6B1B5",
"2. c #AEB3B7",
"3. c #A7B4B8",
"4. c #ABB7BA",
"5. c #ADBABD",
"6. c #ACBAB6",
"7. c #B3B5B5",
"8. c #B1B6BA",
"9. c #B3BABC",
"0. c #BDBEB9",
"q. c #BCBCB4",
"w. c #C5C3BC",
"e. c #B3BFC2",
"r. c #BABEC1",
"t. c #B5C2C3",
"y. c #BDC2C6",
"u. c #BCC6C9",
"i. c #BECACD",
"p. c #C3C5C5",
"a. c #C3C8C6",
"s. c #CCCBC3",
"d. c #C5C7C9",
"f. c #C3CBCD",
"g. c #C9CDCE",
"h. c #D0CFC7",
"j. c #D5D4CC",
"k. c #C1CDD0",
"l. c #CDCFD2",
"z. c #C6D2D3",
"x. c #CBD2D5",
"c. c #CAD6D8",
"v. c #CEDADC",
"b. c #D3D4D3",
"n. c #DBDCD5",
"m. c #D5D7D9",
"M. c #D4DBDD",
"N. c #DBDDDB",
"B. c #E3E2DA",
"V. c #E8E7DE",
"C. c #EAE9DF",
"Z. c #D3DEE1",
"A. c #D6E1E4",
"S. c #DCE2E4",
"D. c #DCE7E9",
"F. c #DEEAEC",
"G. c #E2E5E6",
"H. c #E2E6E8",
"J. c #E3EBEC",
"K. c #EAECED",
"L. c #EEEDE4",
"P. c #F3F2ED",
"I. c #F9F7EE",
"U. c #E3EEF0",
"Y. c #EDEFF0",
"T. c #ECF2F3",
"R. c #F3F5F5",
"E. c #FBFAF3",
"W. c #F2F7F8",
"Q. c #F6F9F9",
"!. c #FEFFFF",
/* pixels */
"!.!.!.!.!.!.!.!.!.!.!.!.!.!.!.!.!.!.!.!.!.!.!.!.!.!.!.!.!.!.!.!.",
"!.!.!.!.!.!.!.!.!.Q.l.-.-.2.8.8.2.<.=.r.P.!.!.!.!.!.!.!.!.!.!.!.",
"!.!.!.!.!.!.!.!.x.=.g.H.Q.!.!.!.!.Q.K.b.=.y.!.!.!.!.!.!.!.!.!.!.",
"!.!.!.!.!.!.!.-.r.Y.!.!.!.!.!.!.!.!.!.!.R.y.-.!.!.!.!.!.!.!.!.!.",
"!.!.!.!.!.!.p.y.R.!.!.!.!.!.!.!.!.!.!.!.!.R.y.d.!.!.!.!.!.!.!.!.",
"!.!.!.!.!.Q.=.Y.!.!.!.!.!.!.!.!.!.!.!.!.!.!.K.-.!.!.!.G.Q.!.!.!.",
"!.!.!.!.!.9.x.Q.!.!.!.!.!.!.!.!.!.!.!.!.Q.!.!.m.^ T l e { R.!.!.",
"!.!.!.!.!.=.H.!.!.!.!.!.!.!.!.!.!.!.!.!.!.Q.!.f.e ;.j.V.w.*.!.!.",
"!.!.!.!.!.,.R.!.Q.W.!.!.!.!.!.!.!.!.!.!.Q.Q.Q.e n.L.E.s.j.q.m.!.",
"!.!.!.!.!.,.Q.!.!.f # G T.!.!.!.!.Q.+.+ 0 T.N.{ E.P.s.>.j.s.0.!.",
"!.!.!.!.!.+.R.!.Q.7 # $ Q.Q.!.!.!.T.+ $ 7 U.Y C.E.w.{ ! h.:.:.!.",
"!.!.!.!.!.+.K.!.Q.I $ e.T.Y.g.u.D.W.O.0 1.T.~ !.I.A A T s.{ n.!.",
"!.!.!.!.!._ k.!.!.Q.!.Q.!.k.m N { K.Q.W.R.a.:.Q.[ Z ! [ s.Z Y.!.",
"!.!.!.!.!.E e.K.!.!.c._ Y.2.B c u Z.K.7 u.8.a p % R.l ! :.:.!.!.",
"!.!.!.!.!.-.$.Z.T.U.8 $ ,.$.B v 4 7 z.L t.F.g.z ; V.5 A l N.!.!.",
"!.!.!.!.!.R.^ v.F.U.i._ Z.h B v 4 0 c.U.U.F.9.t X.7.E.b.Q.!.!.!.",
"!.!.!.!.!.N.f v.D.F.F.U.F.u.C b y i.U.U.U.v._ * : N.!.Q.!.!.!.!.",
"!.!.!.!.!.H.K ' A.D.U.F.U.D.c.u.k.A.J.F.v.O.j X n !.!.!.!.!.!.!.",
"!.!.!.!.!._ W z.3.i.D.F.U.F.F.F.D.D.Z.k.1.` < O S Q.!.!.!.!.!.!.",
"!.!.!.!.G.` b.R.W.i.&.e.z.c.z.f.z.3.%._ J J L z j O.!.!.!.!.!.!.",
"!.!.!.!.G g.b.!.!.Q.R.A.f.5.1.1.4.e.k._ T.!.!.F.J j M.!.!.!.!.!.",
"!.R.#.I I I 4.T.!.!.!.!.!.Q.Q.T.T.Y.H.$.!.!.!.W.&.g E Q.!.!.!.!.",
"!.o.T.!.!.F.L u.Q.!.!.!.!.!.!.!.!.!.T.%.Q.!.!.U.I h g R.!.!.!.!.",
"!.&.!.!.!.T.,.E T.!.!.!.!.!.!.!.!.!.!.O.A.U.U.4.w I < | g.!.!.!.",
"!.%.Q.!.!.U./ D R.!.!.!.!.!.!.!.!.!.Q.G.d f f 0 D o.F ] } 7.!.!.",
"!.O.A.U.U.4.w $.Q.!.!.Q.Q.R.R.W.R.K.H.k o U t.A.k.J R } } } p.!.",
"!.R.o.h w 7 J Z.D.G.D.S.D.H.H.L.H.G.U 6 = X.A.Z.o.1 ( } } } o.!.",
"!.!.l.^ E F K i.z.Z.m.a.r.6.$.@.$.p = 9 a i f._ 8 H ] } } } } !.",
"!.!.K.| } ( F 2 j _ ` Q Q Q Q ..G - s Q ^   z 1 R ] } } } } -.!.",
"!.!.!.d.} } } H w 8 0 q t q q q q > >.w.a . Z W ] } } } } o.K.!.",
"!.!.!.!.d.} } } ( H < < 1 1 1 1 1 , 3 g ;.B.[ } } }  .} o.K.!.!.",
"!.!.!.!.!.K.7.} } } ( ( ( ( ( ( ( ( ( ] ] } } } } } o.d.Q.!.!.!."
};
