/* XPM */
static char *result[] = {
/* columns rows colors chars-per-pixel */
"32 32 97 2 ",
"   c #0A121E",
".  c #0D1523",
"X  c #0E1826",
"o  c #101827",
"O  c #131C2B",
"+  c #151F30",
"@  c #1A212F",
"#  c #162131",
"$  c #1A2434",
"%  c #1F2837",
"&  c #1B2639",
"*  c #1E293C",
"=  c #202835",
"-  c #202B3E",
";  c #27303F",
":  c #222E42",
">  c #263144",
",  c #2D3745",
"<  c #273449",
"1  c #29364C",
"2  c #2E3A4E",
"3  c #2E3B53",
"4  c #323E54",
"5  c #313F58",
"6  c #3B4556",
"7  c #33435C",
"8  c #3A475C",
"9  c #374661",
"0  c #3E4D65",
"q  c #3F4F69",
"w  c #414B5B",
"e  c #444F61",
"r  c #435066",
"t  c #4A5464",
"y  c #43526B",
"u  c #4A566A",
"i  c #4F596B",
"p  c #515760",
"a  c #505969",
"s  c #4C5A71",
"d  c #505E76",
"f  c #526177",
"g  c #5B6576",
"h  c #5E6877",
"j  c #556279",
"k  c #58657A",
"l  c #5B687C",
"z  c #646E7F",
"x  c #5D6B80",
"c  c #616D82",
"v  c #647185",
"b  c #6A7485",
"n  c #6A7689",
"m  c #6D788B",
"M  c #727C8D",
"N  c #7C818B",
"B  c #768193",
"V  c #7B8596",
"C  c #7C8598",
"Z  c #7E8899",
"A  c #828C9B",
"S  c #8B9097",
"D  c #86909F",
"F  c #90949A",
"G  c #8E96A5",
"H  c #8F98A7",
"J  c #929BA7",
"K  c #949CAA",
"L  c #9AA2AE",
"P  c #9DA4B1",
"I  c #A0A7B3",
"U  c #A4AAB6",
"Y  c #A7AEBA",
"T  c #A9AFBA",
"R  c #AAB1BC",
"E  c #B4BAC4",
"W  c #B9BEC5",
"Q  c #BABFC8",
"!  c #BDC2CB",
"~  c #C3C7CE",
"^  c #C6CAD1",
"/  c #CBCED6",
"(  c #CFD3D9",
")  c #D3D6DC",
"_  c #D5D8DE",
"`  c #DADDE2",
"'  c #DDE0E3",
"]  c #E3E3E6",
"[  c #E3E5E9",
"{  c #E7E8EB",
"}  c #E9EBEE",
"|  c #EDEEF1",
" . c #EEF0F2",
".. c #F4F4F6",
"X. c #F6F6F8",
"o. c #F7F8F9",
"O. c #FFFFFF",
/* pixels */
"O.O.O.O.O.O.O.O.O.O.O.O.O.O.O.O.O.O.O.O.O.O.O.O.O.O.O.O.O.O.O.O.",
"O.O.O.O.O.O.O.O.O.O.O.O.O.O.O.O.O.O.O.O.O.O.O.O.O.O.O.O.O.O.O.O.",
"O.O.O.O.O.O.O.O.O.O.O.O.O.O.O.O.O.O.O.O.O.O.O.O.O.O.O.O.O.O.O.O.",
"O.O.O.O.O.O.O.O.O.O.O.O.O.O.O.O.O.O.O.O.O.O.O.O.O.O.O.O.O.O.O.O.",
"O.O.O.O.O.O.O.O.O.O.O.O.O.O.O.O.O.O.O.O.O.O.O.O.O.O.O.O.O.O.O.O.",
"O.O.O.O.O.O.O.O.O.O.O.O.O.O.O.O.O.O.O.O.O.O.O.O.O.O.O.O.O.O.O.O.",
"O.O.O.O.O.O.O.O.O.O.O.O.O.O.O.O.O.O.O.O.O.O.O.O.O.O.O.O.O.O.O.O.",
"O.O.O.O.O.O.O.O.O.O.O.O.O.O..._ ..O.O.O.O.O.O.O.O.O.O.O.O.O.O.O.",
"O.O.O.O.O.O.O.O.O.O.O.O.O.O.O.{ R E O.O.O.O.O.| O.O.O.O.O.O.O.O.",
"O.O.O.O.O.O.O.O...) o.O.O.O.O...L K ( O.O.O.O.} [ O.O.O.O.O.O.O.",
"O.O.O.O.O.O.O.O.X./ ^ O.O.O.O.^ L K P ..O.O.O.O...{ O.O.O.O.O.O.",
"O.O.O.O.O.O.O.O.O...! _ ' ' _ _ P ^  . .O.O.O.O.o.~ ` O.O.O.O.O.",
"O.O.O.O.O.O.O.O.o...^ J V A I E m u V L Q  . ..._ ) _ { O.O.O.O.",
"O.O.O.O.O.O.o.o.o.} J A 8 s T J u & < b A C R ! ^ ..O.O.O.O.O.O.",
"O.O.O.O.O.E C U K J V n * 0 M b 7 $ # M A c 9 U ..O.O.O.O.O.O.O.",
"O.O.O.O.P q 3 # z s g b * 7 r 8 1 $ & B B x 0 M ` O.O.O.O.O.O.O.",
"O.O.O.I : O .   t 8 n m 1 : : 5 $ + - m v j y v ! o.O.O.O.O.O.O.",
"O.O.O.m ,       t 5 m n 9 + : * O > 2 n u y y i L L ' o.^ / O.O.",
"O.O.O.E i       w e n c 9 : $ & 3 : 3 z # 1 4 i D Z H v m Z o.O.",
"O.O.O.{ t       : 5 y s 7 3 O 4 9 * , h @ o o < c j G l _ H  .O.",
"O.O.O.] , . .   1 9 9 9 7 - . 5 9 & $ a O X X < l s x 0 O.o.O.O.",
"O.O.o.P O O .   O < 5 9 < . O 5 7 # O * . . $ & > , k c O.O.O.O.",
"O.O._ d + .     + O - 5 $ O O < 3 O $ #     O O = 2 9 G [ O.O.O.",
"O.O.` s 5 o .   o o * * O & O : # * * O     o O > > 6 P K O.O.O.",
"O.O.O.Y d E ! ~ F X o O + & = $ $ & O @   . X o o = | o.O.O.O.O.",
"O.O.O.O...O.O.} S X . o $ * = = o O $ o   . X o ; { O.o.O.O.O.O.",
"O.O.O.O.O.O.O.O.R i . . p M w O X o o o o o o w A ..O.o.O.O.O.O.",
"O.O.O.O.O.O.O.o./ M o F  .O.X.R # X O o o # K ] ' _ o.O.O.O.O.O.",
"O.O.O.O.O.o.O.` P G _ ..O.o.~ ! R v 6 O , ] O.O.X.` ! O.O.O.O.O.",
"O.O.O.O.O.O.O.O.T Q O.O.O.o.X.Q / ) L v | ..O.O.O...{ O.O.O.O.O.",
"O.O.O.O.O.O.O.O.[ O.O.O.O.O.O./ ^ ' ....X.O.O.O.O.....O.O.O.O.O.",
"O.O.O.O.O.O.O.O.O.O.O.O.X.O.O.) [ ......o.O.O.O.O...o.O.O.O.O.O."
};
